<svg width="549" height="359" viewBox="0 0 549 359" fill="none" xmlns="http://www.w3.org/2000/svg">
<g clip-path="url(#clip0_5_67)">
<path d="M505.768 173.352H61.2621C55.3039 173.352 50.4567 168.505 50.4567 162.546V10.8054C50.4567 4.84728 55.3039 0 61.2621 0H505.768C511.726 0 516.573 4.84728 516.573 10.8054V162.546C516.573 168.505 511.726 173.352 505.768 173.352ZM61.2621 1.28825C56.0144 1.28825 51.7449 5.55777 51.7449 10.8054V162.546C51.7449 167.794 56.0144 172.064 61.2621 172.064H505.768C511.016 172.064 515.285 167.794 515.285 162.546V10.8054C515.285 5.55777 511.016 1.28825 505.768 1.28825H61.2621Z" fill="#3F3D56"/>
<path d="M548.171 354.627H0V355.711H548.171V354.627Z" fill="#E6E6E6"/>
<path d="M548.171 299.232H0V300.316H548.171V299.232Z" fill="#E6E6E6"/>
<path d="M249.817 178.932C250.21 183.879 253.082 187.686 256.23 187.435C259.378 187.184 261.61 182.971 261.216 178.022C261.085 176.043 260.483 174.124 259.459 172.426L257.526 151.487L247.72 152.604L250.666 173.127C249.923 174.967 249.632 176.957 249.817 178.932Z" fill="#FFB6B6"/>
<path d="M238.102 81.2453C238.102 81.2453 247.269 76.3925 251.917 83.6444C256.566 90.8963 259.774 169.326 259.774 169.326L246.89 170.702L244.448 115.434L238.102 81.2453V81.2453Z" fill="#E6E6E6"/>
<path d="M219.075 295.14L226.539 295.139L230.089 266.35L219.074 266.351L219.075 295.14Z" fill="#FFB6B6"/>
<path d="M244.647 294.971C244.879 295.362 245.002 296.625 245.002 297.08C245.002 298.48 243.868 299.614 242.469 299.614H219.354C218.4 299.614 217.626 298.84 217.626 297.886V296.923C217.626 296.923 216.483 294.031 218.837 290.466C218.837 290.466 221.763 293.257 226.135 288.885L227.424 286.55L236.757 293.375L241.929 294.012C243.061 294.151 244.065 293.99 244.647 294.971H244.647H244.647Z" fill="#2F2E41"/>
<path d="M262.267 293.904L269.498 292.056L265.813 263.284L255.14 266.012L262.267 293.904Z" fill="#FFB6B6"/>
<path d="M287.001 287.411C287.323 287.733 287.754 288.927 287.867 289.368C288.213 290.723 287.395 292.103 286.039 292.449L263.644 298.17C262.72 298.406 261.778 297.848 261.542 296.923L261.304 295.991C261.304 295.991 259.48 293.471 260.879 289.435C260.879 289.435 264.405 291.415 267.558 286.097L268.23 283.515L278.961 287.818L284.131 287.155C285.262 287.01 286.194 286.605 287.001 287.411H287.001Z" fill="#2F2E41"/>
<path d="M212.9 75.0566L212.546 72.4885L216.753 62.216L228.309 60.9319L230.804 75.6383L212.9 75.0566Z" fill="#FFB6B6"/>
<path opacity="0.1" d="M212.9 75.0566L212.546 72.4885L216.753 62.216L228.309 60.9319L230.804 75.6383L212.9 75.0566Z" fill="black"/>
<path d="M199.418 147.606L194.282 161.73L198.134 169.435L217.395 281.148H230.2L227.667 182.275L257.2 281.148H269.874L259.682 214.377L252.064 152.742L247.443 149.887L225.099 137.333L199.418 147.606Z" fill="#2F2E41"/>
<path d="M232.161 157.236L224.457 158.52L214.184 134.123H237.297L232.161 157.236Z" fill="#E6E6E6"/>
<path d="M247.57 150.816L232.161 157.236L227.025 145.68L224.457 158.52L197.492 149.84L201.344 134.123L197.492 82.7609L211.09 73.6954L212.9 72.4885L229.593 73.7725L231.057 74.5686L241.15 80.1928L243.718 122.567L247.57 150.816Z" fill="#2F2E41"/>
<path d="M231.057 74.5686L223.815 105.232L211.09 73.6954L212.9 72.4885L229.593 73.7725L231.057 74.5686Z" fill="#E6E6E6"/>
<path d="M218.679 72.4885L216.111 76.9113L218.679 78.3856L217.395 105.312L222.531 112.294L227.667 101.974L223.815 78.3856L225.099 72.4885H218.679Z" fill="#2F2E41"/>
<path d="M222.531 69.9204C229.268 69.9204 234.729 64.4589 234.729 57.7218C234.729 50.9847 229.268 45.5233 222.531 45.5233C215.794 45.5233 210.332 50.9847 210.332 57.7218C210.332 64.4589 215.794 69.9204 222.531 69.9204Z" fill="#FFB6B6"/>
<path d="M214.735 58.7919L217.371 59.9422L218.521 53.0404C218.521 53.0404 223.122 50.7398 226.573 51.8901C230.024 53.0404 235.776 51.8901 235.776 51.8901C235.776 51.8901 235.776 40.3871 227.723 40.3871C219.671 40.3871 211.619 41.5374 211.619 44.9883C211.619 48.4392 208.168 51.8901 208.168 51.8901C208.168 51.8901 203.567 58.7919 208.168 63.3931C212.77 67.9943 215.07 67.9943 215.07 67.9943L214.735 58.7919Z" fill="#2F2E41"/>
<path d="M191.065 178.572C190.932 183.532 193.383 187.622 196.54 187.707C199.697 187.792 202.364 183.839 202.497 178.877C202.577 176.895 202.182 174.923 201.344 173.126L201.645 152.1L191.775 152.169L192.526 172.889C191.592 174.639 191.092 176.588 191.065 178.572V178.572Z" fill="#FFB6B6"/>
<path d="M203.276 80.1687C203.276 80.1687 194.93 77.6006 191.078 85.305C187.225 93.0093 192.362 171.337 192.362 171.337H205.319L201.88 116.122L203.276 80.1687V80.1687Z" fill="#E6E6E6"/>
<path d="M523.451 226.093L492.326 216.564C491.638 216.354 490.915 216.277 490.198 216.338L332.451 229.763C330.202 229.954 329.637 232.988 331.666 233.977L336.719 236.438H336.584V354.282H341.345V238.692L357.182 246.408C358.393 246.998 359.746 247.239 361.087 247.103L362.771 246.933V354.282H367.533V246.452L489.542 234.128V354.282H494.304V233.647L514.539 231.603V354.282H519.301V231.122L522.993 230.749C525.584 230.487 525.942 226.855 523.451 226.093H523.451Z" fill="#3F3D56"/>
<path d="M378.246 229.296C381.222 229.296 425.264 223.94 425.264 223.94L431.811 232.867L385.983 241.795L378.246 229.296Z" fill="white"/>
<path d="M426.583 349.705L418.931 349.691L415.342 320.171L426.635 320.191L426.583 349.705Z" fill="#A0616A"/>
<path d="M400.367 349.487C400.128 349.887 400 351.182 400 351.649C399.997 353.083 401.158 354.248 402.592 354.25L426.289 354.291C427.267 354.293 428.062 353.501 428.064 352.522L428.065 351.536C428.065 351.536 429.243 348.573 426.836 344.914C426.836 344.914 423.831 347.77 419.357 343.281L418.039 340.884L408.459 347.865L403.155 348.508C401.994 348.649 400.966 348.482 400.367 349.487H400.367L400.367 349.487Z" fill="#2F2E41"/>
<path d="M467.651 335.978L461.614 340.531L441.176 319.412L450.087 312.692L467.651 335.978Z" fill="#A0616A"/>
<path d="M446.865 351.443C446.916 351.902 447.587 352.998 447.865 353.366C448.719 354.498 450.328 354.723 451.46 353.87L470.155 339.766C470.927 339.184 471.081 338.086 470.498 337.314L469.911 336.536C469.911 336.536 469.071 333.499 464.992 332.052C464.992 332.052 464.329 336.095 458.125 335.226L455.657 334.124L452.273 345.338L448.478 349.01C447.647 349.813 446.738 350.295 446.865 351.443L446.865 351.443Z" fill="#2F2E41"/>
<path d="M451.659 183.408C451.659 190.464 445.939 196.184 438.883 196.184C431.826 196.184 426.106 190.464 426.106 183.408C426.106 176.351 431.826 170.631 438.883 170.631C445.939 170.631 451.659 176.351 451.659 183.408Z" fill="#A0616A"/>
<path d="M450.455 257.074C450.455 257.074 403.414 254.411 400.751 259.737C398.088 265.062 415.146 338.212 415.146 338.212L430.365 335.023L422.941 283.701C422.941 283.701 462.196 294.097 467.521 281.671C472.847 269.245 471.313 264.618 471.313 264.618L450.455 257.074Z" fill="#2F2E41"/>
<path d="M462.508 248.135C462.508 248.135 416.438 258.011 415.279 263.851C414.12 269.691 449.92 335.723 449.92 335.723L463.753 328.621L443.017 281.092C443.017 281.092 483.624 280.734 485.473 267.341C487.321 253.949 484.619 249.893 484.619 249.893L462.508 248.135Z" fill="#2F2E41"/>
<path d="M467.763 198.05H445.63L430.485 222.902C430.485 222.902 426.935 238.962 430.485 240.696C434.035 242.429 434.035 261.068 434.035 261.068L471.314 264.618C471.314 264.618 476.639 208.701 474.864 203.376C473.089 198.05 467.763 198.05 467.763 198.05Z" fill="#6C63FF"/>
<path d="M432.704 214.47L430.485 240.696L405.527 230.103L399.57 227.107C398.403 225.586 396.889 224.366 395.155 223.55C390.841 221.448 386.261 221.968 384.923 224.713C383.586 227.457 385.997 231.386 390.31 233.487C392.022 234.35 393.917 234.791 395.834 234.773L413.263 244.672L413.284 244.633L413.361 244.771L440.692 256.186L446.981 221.758L432.704 214.47H432.704Z" fill="#A0616A"/>
<path d="M430.041 185.18C430.041 185.18 416.728 186.955 422.053 175.417C422.053 175.417 421.241 169.162 425.197 168.739C429.154 168.316 434.479 161.216 434.479 161.216C434.479 161.216 446.689 155.003 453.01 161.216C459.331 167.429 477.97 203.819 477.97 203.819L465.544 217.133C465.544 217.133 458.074 197.494 449.383 199.769C440.692 202.044 432.704 208.827 432.704 208.827C432.704 208.827 423.884 204.413 427.85 200.566C431.816 196.719 430.041 185.18 430.041 185.18Z" fill="#2F2E41"/>
<path d="M447.793 204.707C447.793 204.707 441.58 196.719 437.142 202.932C432.704 209.145 429.154 217.133 429.154 217.133L446.905 223.346L447.793 204.707H447.793Z" fill="#6C63FF"/>
<path d="M515.193 352.515L494.569 286.963L494.572 286.962H494.619L494.536 286.855L494.534 286.853L493.065 282.184L493.066 282.183C495.304 280.255 496.827 277.499 497.131 274.327L487.703 222.476C488.352 215.667 483.132 209.715 476.294 209.471L455.023 209.418C448.976 209.204 443.738 213.572 442.857 219.559L442.387 222.738L435.87 267.072C435.632 268.667 435.727 270.238 436.102 271.708L431.412 272.321L429.99 272.512L424.365 273.244L424.348 273.25L423.645 273.339H422.883V292.384H422.931V353.258C422.931 353.651 423.252 353.972 423.645 353.972C424.044 353.972 424.365 353.651 424.365 353.258V292.384H432.71L441.036 353.187C441.09 353.544 441.393 353.806 441.75 353.806C441.78 353.806 441.816 353.806 441.846 353.8C442.238 353.746 442.512 353.383 442.459 352.99L434.162 292.384H474.199C478.174 292.384 481.858 291.123 484.857 288.963L500.732 353.075C500.814 353.4 501.106 353.615 501.426 353.615C501.484 353.615 501.544 353.608 501.603 353.593C501.987 353.496 502.219 353.105 502.121 352.722L486.094 287.989C486.307 287.811 486.52 287.622 486.721 287.426L493.094 287.052L513.825 352.946C513.921 353.252 514.204 353.448 514.509 353.448C514.58 353.448 514.652 353.437 514.724 353.414C515.102 353.295 515.312 352.893 515.193 352.515ZM491.703 283.201C491.756 283.171 491.804 283.135 491.852 283.106L491.852 283.105L492.005 283.592L491.703 283.201Z" fill="#E6E6E6"/>
<path d="M110.509 241.401L124.389 232.574L130.032 235.978L110.509 258.411V241.401Z" fill="#FFB6B6"/>
<path d="M91.5282 207.235C91.5282 207.235 82.3089 209.405 86.6474 221.878C90.9859 234.351 105.086 260.382 109.425 258.755C113.763 257.128 114.305 240.859 114.305 240.859C114.305 240.859 113.763 241.401 111.594 239.232C109.425 237.063 109.425 238.053 109.425 235.66C109.425 233.266 107.65 231.492 107.65 231.492L105.628 227.301C105.628 227.301 105.628 207.778 97.4936 206.693C89.3589 205.608 91.5282 207.235 91.5282 207.235L91.5282 207.235Z" fill="#E6E6E6"/>
<path d="M134.601 235.395C138.202 231.794 139.318 227.073 137.094 224.849C134.87 222.626 130.149 223.742 126.548 227.342C122.948 230.942 121.832 235.664 124.056 237.887C126.279 240.111 131.001 238.995 134.601 235.395Z" fill="#FFB6B6"/>
<path d="M55.6188 279.092L65.09 294.769L120.284 291.503L105.588 272.56L55.6188 279.092Z" fill="#E6E6E6"/>
<path d="M72.111 352.413C71.7895 352.413 71.5095 352.175 71.4647 351.848L54.9717 231.392C54.9227 231.035 55.1728 230.705 55.5301 230.657C55.8873 230.605 56.2168 230.858 56.2659 231.215L72.7589 351.671C72.8079 352.028 72.5579 352.358 72.2005 352.406C72.1703 352.411 72.1405 352.413 72.111 352.413Z" fill="#E6E6E6"/>
<path d="M55.6188 352.566C55.2581 352.566 54.9656 352.273 54.9656 351.912V231.327C54.9656 230.966 55.2581 230.674 55.6188 230.674C55.9795 230.674 56.272 230.966 56.272 231.327V351.912C56.272 352.273 55.9795 352.566 55.6188 352.566Z" fill="#E6E6E6"/>
<path d="M138.41 352.086C138.133 352.086 137.875 351.908 137.787 351.629L98.7594 227.581C98.6511 227.237 98.8423 226.87 99.1865 226.761C99.5304 226.654 99.8974 226.845 100.005 227.189L139.034 351.237C139.142 351.581 138.951 351.948 138.606 352.056C138.541 352.076 138.475 352.086 138.41 352.086Z" fill="#E6E6E6"/>
<path d="M126.489 352.239C126.198 352.239 125.932 352.043 125.857 351.747L98.7493 242.266C98.6605 241.916 98.8718 241.561 99.2214 241.472C99.572 241.383 99.9265 241.594 100.016 241.944L127.123 351.425C127.212 351.774 127 352.13 126.651 352.219C126.597 352.233 126.543 352.239 126.489 352.239H126.489Z" fill="#E6E6E6"/>
<path d="M55.6188 233.248L100.852 232.552L109.18 280.072H56.272L55.6188 233.248Z" fill="#E6E6E6"/>
<path d="M125.131 303.122L113.732 323.192L126.967 326.106L132.486 311.831L125.131 303.122Z" fill="#FFB6B6"/>
<path d="M117.826 319.403C117.826 319.403 117.383 316.13 114.779 317.169C112.175 318.207 104.659 322.067 104.659 322.067C104.659 322.067 124.262 353.92 127.982 352.436C131.702 350.952 127.249 341.948 127.249 341.948L128.232 326.033L117.826 319.403H117.826Z" fill="#2F2E41"/>
<path d="M74.7165 264.178C74.7165 264.178 70.6491 282.888 83.1223 289.396C95.5955 295.904 138.167 279.905 138.167 279.905L118.644 309.158L132.202 314.613C132.202 314.613 163.114 273.94 160.944 267.432C158.775 260.924 144.133 260.382 144.133 260.382L111.051 262.009L102.374 259.297L74.7165 264.178H74.7165Z" fill="#2F2E41"/>
<path d="M108.266 312.03L90.3453 326.575L101.613 334.106L111.948 322.818L108.266 312.03Z" fill="#FFB6B6"/>
<path d="M95.5378 324.536C95.5378 324.536 96.3162 321.326 93.5126 321.346C90.709 321.366 82.3039 322.226 82.3039 322.226C82.3039 322.226 88.9724 359.028 92.9776 359C96.9827 358.972 96.1109 348.964 96.1109 348.964L102.818 334.498L95.5378 324.536Z" fill="#2F2E41"/>
<path d="M75.479 257.41C75.479 257.41 64.8823 273.358 74.1324 283.958C83.3824 294.558 128.857 295.148 128.857 295.148L100.027 315.291L110.671 325.306C110.671 325.306 154.264 298.669 154.611 291.818C154.959 284.967 141.518 279.134 141.518 279.134L110.112 268.612L103.017 262.929L75.479 257.41H75.479Z" fill="#2F2E41"/>
<path d="M102.701 220.473C102.701 220.473 92.3972 216.677 87.5164 216.677C87.05 216.677 86.589 216.731 86.128 216.829C83.0043 217.491 80.1301 220.175 78.7526 221.639C78.2157 222.214 77.9066 222.599 77.9066 222.599C77.9066 222.599 77.9391 222.225 78.0042 221.569C78.3242 218.12 79.5064 206.802 81.6268 199.556C82.3861 196.969 83.2592 194.903 84.2625 193.9C86.5998 191.557 87.679 188.748 88.178 186.655C88.601 184.86 88.601 183.596 88.601 183.596L84.6475 181.893L83.9154 177.11C83.7852 177.674 83.1833 178.775 81.1605 180.884C80.9869 181.063 80.7971 181.215 80.5964 181.345C77.6788 183.178 71.7296 179.99 68.5245 177.983C69.8586 173.346 72.2774 169.105 76.6701 168.411C86.974 166.784 86.974 160.819 93.4818 167.327C94.0187 167.864 94.561 168.379 95.1033 168.878C97.1858 172.858 97.945 178.195 98.2162 181.904C98.4114 184.502 98.3626 186.308 98.3626 186.308C98.3626 186.308 101.074 202.577 105.413 205.831C109.751 209.085 102.701 220.473 102.701 220.473Z" fill="#2F2E41"/>
<path d="M82.6355 194.442L75.3079 205.19L91.8549 209.627V194.442H82.6355Z" fill="#FFB6B6"/>
<path opacity="0.1" d="M82.6355 194.442L75.3079 205.19L91.8549 209.627V194.442H82.6355Z" fill="black"/>
<path d="M92.884 204.795L77.1569 198.287C77.1569 198.287 56.0067 207.507 57.6336 225.403C59.2606 243.299 74.4453 274.211 74.4453 274.211L104.815 261.196L101.561 226.488L92.884 204.795Z" fill="#E6E6E6"/>
<path d="M86.1409 199.241C93.8039 199.241 100.016 193.029 100.016 185.366C100.016 177.703 93.8039 171.491 86.1409 171.491C78.4779 171.491 72.2658 177.703 72.2658 185.366C72.2658 193.029 78.4779 199.241 86.1409 199.241Z" fill="#FFB6B6"/>
<path d="M104.87 180.342C102.159 183.054 99.9896 185.765 99.9896 185.765L98.9049 181.427C98.9049 181.427 98.6555 181.611 98.2162 181.904C96.4971 183.075 91.882 186.02 88.178 186.655C86.5293 186.937 85.0651 186.758 84.1106 185.765C82.0878 183.656 81.4858 182.555 81.3557 181.991L80.6235 186.774L76.6701 188.477C76.6701 188.477 76.6701 194.431 81.0086 198.781C81.2201 198.992 81.4262 199.253 81.6268 199.556C83.6985 202.68 85.1844 210.327 86.128 216.829C86.9632 222.61 87.3645 227.48 87.3645 227.48C87.3645 227.48 83.2592 222.339 78.7526 221.639C78.5031 221.601 78.2536 221.574 78.0042 221.569C77.9228 221.558 77.8361 221.558 77.7547 221.558C72.8739 221.558 62.57 225.354 62.57 225.354C62.57 225.354 55.5199 213.966 59.8584 210.712C64.1969 207.458 66.9085 191.188 66.9085 191.188C66.9085 191.188 66.7295 184.225 68.5245 177.983C69.8586 173.346 72.2774 169.105 76.6701 168.411C86.974 166.784 86.974 160.819 93.4818 167.327C94.0187 167.863 94.561 168.379 95.1033 168.878C101.166 174.453 107.36 177.853 104.87 180.342Z" fill="#2F2E41"/>
<path d="M44.0155 253.14H38.8625V354.912H44.0155V253.14Z" fill="#3F3D56"/>
<path d="M168.975 253.14H163.822V354.912H168.975V253.14Z" fill="#3F3D56"/>
<path d="M136.125 209.984H101.987V244.123H136.125V209.984Z" fill="#6C63FF"/>
<path d="M82.3089 246.282L96.1891 237.455L101.832 240.859L82.3089 263.292V246.282Z" fill="#FFB6B6"/>
<path d="M63.3279 212.116C63.3279 212.116 54.1086 214.285 58.4471 226.759C62.7856 239.232 76.8857 265.263 81.2242 263.636C85.5627 262.009 86.1051 245.74 86.1051 245.74C86.1051 245.74 85.5628 246.282 83.3935 244.113C81.2243 241.943 81.2242 242.934 81.2242 240.541C81.2242 238.147 79.45 236.373 79.45 236.373L77.4281 232.182C77.4281 232.182 77.4281 212.659 69.2934 211.574C61.1587 210.489 63.3279 212.116 63.3279 212.116H63.3279Z" fill="#E6E6E6"/>
<path d="M106.401 240.276C110.001 236.675 111.117 231.954 108.893 229.73C106.67 227.506 101.948 228.622 98.348 232.223C94.7476 235.823 93.6316 240.544 95.8554 242.768C98.0792 244.992 102.801 243.876 106.401 240.276Z" fill="#FFB6B6"/>
<path d="M179.281 249.276H23.4035V260.87H179.281V249.276Z" fill="#3F3D56"/>
<path d="M337.652 156.522H314.631C312.806 156.522 311.327 158.001 311.327 159.826V169.321C311.327 171.146 312.806 172.625 314.631 172.625H337.652C339.477 172.625 340.956 171.146 340.956 169.321V159.826C340.956 158.001 339.477 156.522 337.652 156.522Z" fill="#3F3D56"/>
<path d="M385.961 166.016H362.94C361.115 166.016 359.636 167.496 359.636 169.321V169.321C359.636 171.146 361.115 172.625 362.94 172.625H385.961C387.786 172.625 389.265 171.146 389.265 169.321V169.321C389.265 167.496 387.786 166.016 385.961 166.016Z" fill="#6C63FF"/>
</g>
<defs>
<clipPath id="clip0_5_67">
<rect width="548.171" height="359" fill="white"/>
</clipPath>
</defs>
</svg>
